<mxfile host="app.diagrams.net" modified="2023-09-02T14:23:26.893Z" agent="Mozilla/5.0 (Windows NT 10.0; Win64; x64) AppleWebKit/537.36 (KHTML, like Gecko) Chrome/116.0.0.0 Safari/537.36" etag="3NMH0bL64cP2BZ73elqz" version="21.7.2" type="device">
  <diagram id="R2lEEEUBdFMjLlhIrx00" name="Page-1">
    <mxGraphModel dx="2524" dy="1858" grid="1" gridSize="10" guides="1" tooltips="1" connect="1" arrows="1" fold="1" page="1" pageScale="1" pageWidth="850" pageHeight="1100" math="0" shadow="0" extFonts="Permanent Marker^https://fonts.googleapis.com/css?family=Permanent+Marker">
      <root>
        <mxCell id="0" />
        <mxCell id="1" parent="0" />
        <mxCell id="QRd-aFwG25JJw0g1krjn-1" value="EMPLEADO" style="rounded=1;whiteSpace=wrap;html=1;" parent="1" vertex="1">
          <mxGeometry x="90" y="140" width="120" height="60" as="geometry" />
        </mxCell>
        <mxCell id="QRd-aFwG25JJw0g1krjn-3" value="PROYECTO" style="rounded=1;whiteSpace=wrap;html=1;" parent="1" vertex="1">
          <mxGeometry x="1020" y="410" width="120" height="60" as="geometry" />
        </mxCell>
        <mxCell id="QRd-aFwG25JJw0g1krjn-10" value="" style="endArrow=none;html=1;rounded=0;entryX=0;entryY=0.5;entryDx=0;entryDy=0;exitX=1;exitY=0.75;exitDx=0;exitDy=0;" parent="1" source="QRd-aFwG25JJw0g1krjn-1" target="QRd-aFwG25JJw0g1krjn-5" edge="1">
          <mxGeometry width="50" height="50" relative="1" as="geometry">
            <mxPoint x="340" y="410" as="sourcePoint" />
            <mxPoint x="390" y="360" as="targetPoint" />
          </mxGeometry>
        </mxCell>
        <mxCell id="QRd-aFwG25JJw0g1krjn-11" value="DEPENDIENTE" style="shape=ext;margin=3;double=1;whiteSpace=wrap;html=1;align=center;" parent="1" vertex="1">
          <mxGeometry x="310" y="490" width="100" height="40" as="geometry" />
        </mxCell>
        <mxCell id="QRd-aFwG25JJw0g1krjn-14" style="rounded=0;orthogonalLoop=1;jettySize=auto;html=1;exitX=1;exitY=0.5;exitDx=0;exitDy=0;entryX=0.5;entryY=0;entryDx=0;entryDy=0;shape=link;" parent="1" source="QRd-aFwG25JJw0g1krjn-12" target="QRd-aFwG25JJw0g1krjn-11" edge="1">
          <mxGeometry relative="1" as="geometry" />
        </mxCell>
        <mxCell id="QRd-aFwG25JJw0g1krjn-13" value="" style="endArrow=none;html=1;rounded=0;exitX=0.5;exitY=1;exitDx=0;exitDy=0;entryX=0;entryY=0.5;entryDx=0;entryDy=0;" parent="1" source="QRd-aFwG25JJw0g1krjn-1" target="QRd-aFwG25JJw0g1krjn-12" edge="1">
          <mxGeometry width="50" height="50" relative="1" as="geometry">
            <mxPoint x="340" y="410" as="sourcePoint" />
            <mxPoint x="390" y="360" as="targetPoint" />
          </mxGeometry>
        </mxCell>
        <mxCell id="QRd-aFwG25JJw0g1krjn-16" value="" style="endArrow=none;html=1;rounded=0;exitX=1;exitY=0.5;exitDx=0;exitDy=0;entryX=0.25;entryY=1;entryDx=0;entryDy=0;" parent="1" source="QRd-aFwG25JJw0g1krjn-15" target="QRd-aFwG25JJw0g1krjn-1" edge="1">
          <mxGeometry width="50" height="50" relative="1" as="geometry">
            <mxPoint x="340" y="410" as="sourcePoint" />
            <mxPoint x="390" y="360" as="targetPoint" />
          </mxGeometry>
        </mxCell>
        <mxCell id="QRd-aFwG25JJw0g1krjn-17" value="" style="endArrow=none;html=1;rounded=0;exitX=0;exitY=0.5;exitDx=0;exitDy=0;entryX=0;entryY=1;entryDx=0;entryDy=0;" parent="1" source="QRd-aFwG25JJw0g1krjn-15" target="QRd-aFwG25JJw0g1krjn-1" edge="1">
          <mxGeometry width="50" height="50" relative="1" as="geometry">
            <mxPoint x="340" y="410" as="sourcePoint" />
            <mxPoint x="390" y="360" as="targetPoint" />
          </mxGeometry>
        </mxCell>
        <mxCell id="QRd-aFwG25JJw0g1krjn-18" value="" style="endArrow=none;html=1;rounded=0;exitX=0.75;exitY=1;exitDx=0;exitDy=0;entryX=0;entryY=0.5;entryDx=0;entryDy=0;shape=link;" parent="1" source="QRd-aFwG25JJw0g1krjn-1" target="QRd-aFwG25JJw0g1krjn-7" edge="1">
          <mxGeometry width="50" height="50" relative="1" as="geometry">
            <mxPoint x="340" y="410" as="sourcePoint" />
            <mxPoint x="390" y="360" as="targetPoint" />
          </mxGeometry>
        </mxCell>
        <mxCell id="QRd-aFwG25JJw0g1krjn-19" value="" style="endArrow=none;html=1;rounded=0;exitX=1;exitY=0.5;exitDx=0;exitDy=0;entryX=0;entryY=0.5;entryDx=0;entryDy=0;shape=link;" parent="1" source="QRd-aFwG25JJw0g1krjn-7" target="QRd-aFwG25JJw0g1krjn-3" edge="1">
          <mxGeometry width="50" height="50" relative="1" as="geometry">
            <mxPoint x="340" y="410" as="sourcePoint" />
            <mxPoint x="390" y="360" as="targetPoint" />
          </mxGeometry>
        </mxCell>
        <mxCell id="QRd-aFwG25JJw0g1krjn-20" value="" style="endArrow=none;html=1;rounded=0;exitX=1;exitY=0.25;exitDx=0;exitDy=0;entryX=0;entryY=0.5;entryDx=0;entryDy=0;shape=link;" parent="1" source="QRd-aFwG25JJw0g1krjn-1" target="QRd-aFwG25JJw0g1krjn-4" edge="1">
          <mxGeometry width="50" height="50" relative="1" as="geometry">
            <mxPoint x="340" y="410" as="sourcePoint" />
            <mxPoint x="390" y="360" as="targetPoint" />
          </mxGeometry>
        </mxCell>
        <mxCell id="QRd-aFwG25JJw0g1krjn-21" value="" style="endArrow=none;html=1;rounded=0;exitX=1;exitY=0.5;exitDx=0;exitDy=0;entryX=0;entryY=0.25;entryDx=0;entryDy=0;shape=link;" parent="1" source="QRd-aFwG25JJw0g1krjn-4" target="QRd-aFwG25JJw0g1krjn-2" edge="1">
          <mxGeometry width="50" height="50" relative="1" as="geometry">
            <mxPoint x="340" y="410" as="sourcePoint" />
            <mxPoint x="390" y="360" as="targetPoint" />
          </mxGeometry>
        </mxCell>
        <mxCell id="QRd-aFwG25JJw0g1krjn-22" value="" style="endArrow=none;html=1;rounded=0;exitX=1;exitY=0.5;exitDx=0;exitDy=0;entryX=0;entryY=1;entryDx=0;entryDy=0;shape=link;" parent="1" source="QRd-aFwG25JJw0g1krjn-5" target="QRd-aFwG25JJw0g1krjn-2" edge="1">
          <mxGeometry width="50" height="50" relative="1" as="geometry">
            <mxPoint x="340" y="410" as="sourcePoint" />
            <mxPoint x="390" y="360" as="targetPoint" />
          </mxGeometry>
        </mxCell>
        <mxCell id="QRd-aFwG25JJw0g1krjn-23" value="" style="endArrow=none;html=1;rounded=0;exitX=0;exitY=0.5;exitDx=0;exitDy=0;entryX=0.5;entryY=1;entryDx=0;entryDy=0;" parent="1" source="QRd-aFwG25JJw0g1krjn-6" target="QRd-aFwG25JJw0g1krjn-2" edge="1">
          <mxGeometry width="50" height="50" relative="1" as="geometry">
            <mxPoint x="340" y="410" as="sourcePoint" />
            <mxPoint x="390" y="360" as="targetPoint" />
          </mxGeometry>
        </mxCell>
        <mxCell id="QRd-aFwG25JJw0g1krjn-24" value="" style="endArrow=none;html=1;rounded=0;exitX=0.5;exitY=0;exitDx=0;exitDy=0;entryX=1;entryY=0.5;entryDx=0;entryDy=0;shape=link;" parent="1" source="QRd-aFwG25JJw0g1krjn-3" target="QRd-aFwG25JJw0g1krjn-6" edge="1">
          <mxGeometry width="50" height="50" relative="1" as="geometry">
            <mxPoint x="340" y="410" as="sourcePoint" />
            <mxPoint x="390" y="360" as="targetPoint" />
          </mxGeometry>
        </mxCell>
        <mxCell id="QRd-aFwG25JJw0g1krjn-25" value="LUGAR" style="ellipse;whiteSpace=wrap;html=1;" parent="1" vertex="1">
          <mxGeometry x="1040" y="525" width="120" height="50" as="geometry" />
        </mxCell>
        <mxCell id="QRd-aFwG25JJw0g1krjn-26" value="&lt;u&gt;NOMBRE&lt;/u&gt;" style="ellipse;whiteSpace=wrap;html=1;" parent="1" vertex="1">
          <mxGeometry x="1190" y="410" width="120" height="50" as="geometry" />
        </mxCell>
        <mxCell id="QRd-aFwG25JJw0g1krjn-27" value="HORAS" style="ellipse;whiteSpace=wrap;html=1;" parent="1" vertex="1">
          <mxGeometry x="620" y="490" width="120" height="50" as="geometry" />
        </mxCell>
        <mxCell id="QRd-aFwG25JJw0g1krjn-28" value="NOMBRE" style="ellipse;whiteSpace=wrap;html=1;" parent="1" vertex="1">
          <mxGeometry x="470" y="480" width="120" height="50" as="geometry" />
        </mxCell>
        <mxCell id="QRd-aFwG25JJw0g1krjn-29" value="RELACION" style="ellipse;whiteSpace=wrap;html=1;" parent="1" vertex="1">
          <mxGeometry x="340" y="570" width="120" height="50" as="geometry" />
        </mxCell>
        <mxCell id="QRd-aFwG25JJw0g1krjn-30" value="DNI" style="ellipse;whiteSpace=wrap;html=1;" parent="1" vertex="1">
          <mxGeometry x="150" y="485" width="120" height="50" as="geometry" />
        </mxCell>
        <mxCell id="QRd-aFwG25JJw0g1krjn-32" value="NOMBRE" style="ellipse;whiteSpace=wrap;html=1;" parent="1" vertex="1">
          <mxGeometry x="-130" y="-110" width="120" height="65" as="geometry" />
        </mxCell>
        <mxCell id="QRd-aFwG25JJw0g1krjn-33" value="APELLIDO" style="ellipse;whiteSpace=wrap;html=1;" parent="1" vertex="1">
          <mxGeometry x="-40" y="-240" width="120" height="65" as="geometry" />
        </mxCell>
        <mxCell id="QRd-aFwG25JJw0g1krjn-34" value="SEGUNDO&lt;br&gt;NOMBRE" style="ellipse;whiteSpace=wrap;html=1;" parent="1" vertex="1">
          <mxGeometry x="-240" y="-220" width="120" height="65" as="geometry" />
        </mxCell>
        <mxCell id="QRd-aFwG25JJw0g1krjn-35" value="PRIMER&amp;nbsp;&lt;br&gt;NOMBRE" style="ellipse;whiteSpace=wrap;html=1;" parent="1" vertex="1">
          <mxGeometry x="-360" y="-120" width="120" height="65" as="geometry" />
        </mxCell>
        <mxCell id="QRd-aFwG25JJw0g1krjn-36" value="FECHA DE&amp;nbsp;&lt;br&gt;NACIMIENTO" style="ellipse;whiteSpace=wrap;html=1;" parent="1" vertex="1">
          <mxGeometry x="-240" y="10" width="120" height="65" as="geometry" />
        </mxCell>
        <mxCell id="QRd-aFwG25JJw0g1krjn-37" value="&lt;u&gt;DNI&lt;/u&gt;" style="ellipse;whiteSpace=wrap;html=1;" parent="1" vertex="1">
          <mxGeometry x="-220" y="140" width="120" height="50" as="geometry" />
        </mxCell>
        <mxCell id="QRd-aFwG25JJw0g1krjn-38" value="SALARIO" style="ellipse;whiteSpace=wrap;html=1;" parent="1" vertex="1">
          <mxGeometry x="190" y="-60" width="120" height="65" as="geometry" />
        </mxCell>
        <mxCell id="QRd-aFwG25JJw0g1krjn-39" value="DIRECCION" style="ellipse;whiteSpace=wrap;html=1;" parent="1" vertex="1">
          <mxGeometry x="120" y="-155" width="120" height="65" as="geometry" />
        </mxCell>
        <mxCell id="QRd-aFwG25JJw0g1krjn-40" value="SEXO" style="ellipse;whiteSpace=wrap;html=1;" parent="1" vertex="1">
          <mxGeometry x="340" y="-155" width="120" height="65" as="geometry" />
        </mxCell>
        <mxCell id="QRd-aFwG25JJw0g1krjn-41" value="CUANDO_COMENZO" style="ellipse;whiteSpace=wrap;html=1;" parent="1" vertex="1">
          <mxGeometry x="520" y="135" width="150" height="55" as="geometry" />
        </mxCell>
        <mxCell id="QRd-aFwG25JJw0g1krjn-45" value="" style="endArrow=none;html=1;rounded=0;exitX=1;exitY=0.5;exitDx=0;exitDy=0;entryX=0;entryY=0.5;entryDx=0;entryDy=0;" parent="1" source="QRd-aFwG25JJw0g1krjn-30" target="QRd-aFwG25JJw0g1krjn-11" edge="1">
          <mxGeometry width="50" height="50" relative="1" as="geometry">
            <mxPoint x="420" y="440" as="sourcePoint" />
            <mxPoint x="470" y="390" as="targetPoint" />
          </mxGeometry>
        </mxCell>
        <mxCell id="QRd-aFwG25JJw0g1krjn-46" value="" style="endArrow=none;html=1;rounded=0;exitX=0.5;exitY=1;exitDx=0;exitDy=0;entryX=0.5;entryY=0;entryDx=0;entryDy=0;" parent="1" source="QRd-aFwG25JJw0g1krjn-11" target="QRd-aFwG25JJw0g1krjn-29" edge="1">
          <mxGeometry width="50" height="50" relative="1" as="geometry">
            <mxPoint x="420" y="440" as="sourcePoint" />
            <mxPoint x="470" y="390" as="targetPoint" />
          </mxGeometry>
        </mxCell>
        <mxCell id="QRd-aFwG25JJw0g1krjn-47" value="" style="endArrow=none;html=1;rounded=0;exitX=1;exitY=0.5;exitDx=0;exitDy=0;entryX=0;entryY=0.5;entryDx=0;entryDy=0;" parent="1" source="QRd-aFwG25JJw0g1krjn-11" target="QRd-aFwG25JJw0g1krjn-28" edge="1">
          <mxGeometry width="50" height="50" relative="1" as="geometry">
            <mxPoint x="420" y="440" as="sourcePoint" />
            <mxPoint x="470" y="390" as="targetPoint" />
          </mxGeometry>
        </mxCell>
        <mxCell id="QRd-aFwG25JJw0g1krjn-48" value="" style="endArrow=none;html=1;rounded=0;entryX=0.5;entryY=1;entryDx=0;entryDy=0;exitX=0.5;exitY=0;exitDx=0;exitDy=0;" parent="1" source="QRd-aFwG25JJw0g1krjn-27" target="QRd-aFwG25JJw0g1krjn-7" edge="1">
          <mxGeometry width="50" height="50" relative="1" as="geometry">
            <mxPoint x="560" y="550" as="sourcePoint" />
            <mxPoint x="610" y="500" as="targetPoint" />
          </mxGeometry>
        </mxCell>
        <mxCell id="QRd-aFwG25JJw0g1krjn-49" value="" style="endArrow=none;html=1;rounded=0;exitX=1;exitY=0.25;exitDx=0;exitDy=0;entryX=0;entryY=0.5;entryDx=0;entryDy=0;" parent="1" source="QRd-aFwG25JJw0g1krjn-3" target="QRd-aFwG25JJw0g1krjn-26" edge="1">
          <mxGeometry width="50" height="50" relative="1" as="geometry">
            <mxPoint x="1150" y="390" as="sourcePoint" />
            <mxPoint x="1200" y="340" as="targetPoint" />
          </mxGeometry>
        </mxCell>
        <mxCell id="QRd-aFwG25JJw0g1krjn-50" value="" style="endArrow=none;html=1;rounded=0;exitX=0.5;exitY=1;exitDx=0;exitDy=0;entryX=0.5;entryY=0;entryDx=0;entryDy=0;" parent="1" source="QRd-aFwG25JJw0g1krjn-3" target="QRd-aFwG25JJw0g1krjn-25" edge="1">
          <mxGeometry width="50" height="50" relative="1" as="geometry">
            <mxPoint x="1150" y="390" as="sourcePoint" />
            <mxPoint x="1200" y="340" as="targetPoint" />
          </mxGeometry>
        </mxCell>
        <mxCell id="QRd-aFwG25JJw0g1krjn-52" value="" style="endArrow=none;html=1;rounded=0;exitX=0.5;exitY=0;exitDx=0;exitDy=0;entryX=0.5;entryY=1;entryDx=0;entryDy=0;" parent="1" source="QRd-aFwG25JJw0g1krjn-5" target="QRd-aFwG25JJw0g1krjn-41" edge="1">
          <mxGeometry width="50" height="50" relative="1" as="geometry">
            <mxPoint x="580" y="290" as="sourcePoint" />
            <mxPoint x="630" y="240" as="targetPoint" />
          </mxGeometry>
        </mxCell>
        <mxCell id="QRd-aFwG25JJw0g1krjn-53" value="" style="endArrow=none;html=1;rounded=0;exitX=0.5;exitY=0;exitDx=0;exitDy=0;entryX=0.5;entryY=1;entryDx=0;entryDy=0;" parent="1" source="QRd-aFwG25JJw0g1krjn-1" target="QRd-aFwG25JJw0g1krjn-39" edge="1">
          <mxGeometry width="50" height="50" relative="1" as="geometry">
            <mxPoint x="350" y="290" as="sourcePoint" />
            <mxPoint x="400" y="240" as="targetPoint" />
          </mxGeometry>
        </mxCell>
        <mxCell id="QRd-aFwG25JJw0g1krjn-54" value="" style="endArrow=none;html=1;rounded=0;exitX=0.25;exitY=0;exitDx=0;exitDy=0;entryX=1;entryY=1;entryDx=0;entryDy=0;" parent="1" source="QRd-aFwG25JJw0g1krjn-1" target="QRd-aFwG25JJw0g1krjn-32" edge="1">
          <mxGeometry width="50" height="50" relative="1" as="geometry">
            <mxPoint x="350" y="90" as="sourcePoint" />
            <mxPoint x="400" y="40" as="targetPoint" />
          </mxGeometry>
        </mxCell>
        <mxCell id="QRd-aFwG25JJw0g1krjn-55" value="" style="endArrow=none;html=1;rounded=0;exitX=0.75;exitY=0;exitDx=0;exitDy=0;entryX=0.5;entryY=1;entryDx=0;entryDy=0;" parent="1" source="QRd-aFwG25JJw0g1krjn-1" target="QRd-aFwG25JJw0g1krjn-38" edge="1">
          <mxGeometry width="50" height="50" relative="1" as="geometry">
            <mxPoint x="350" y="90" as="sourcePoint" />
            <mxPoint x="400" y="40" as="targetPoint" />
          </mxGeometry>
        </mxCell>
        <mxCell id="QRd-aFwG25JJw0g1krjn-56" value="" style="endArrow=none;html=1;rounded=0;exitX=1;exitY=0;exitDx=0;exitDy=0;entryX=0.5;entryY=1;entryDx=0;entryDy=0;" parent="1" source="QRd-aFwG25JJw0g1krjn-1" target="QRd-aFwG25JJw0g1krjn-40" edge="1">
          <mxGeometry width="50" height="50" relative="1" as="geometry">
            <mxPoint x="350" y="90" as="sourcePoint" />
            <mxPoint x="400" y="40" as="targetPoint" />
          </mxGeometry>
        </mxCell>
        <mxCell id="QRd-aFwG25JJw0g1krjn-57" value="" style="endArrow=none;html=1;rounded=0;exitX=1;exitY=0;exitDx=0;exitDy=0;entryX=0.5;entryY=1;entryDx=0;entryDy=0;" parent="1" source="QRd-aFwG25JJw0g1krjn-32" target="QRd-aFwG25JJw0g1krjn-33" edge="1">
          <mxGeometry width="50" height="50" relative="1" as="geometry">
            <mxPoint x="350" y="90" as="sourcePoint" />
            <mxPoint x="400" y="40" as="targetPoint" />
          </mxGeometry>
        </mxCell>
        <mxCell id="QRd-aFwG25JJw0g1krjn-58" value="" style="endArrow=none;html=1;rounded=0;entryX=0;entryY=0;entryDx=0;entryDy=0;exitX=1;exitY=1;exitDx=0;exitDy=0;" parent="1" source="QRd-aFwG25JJw0g1krjn-34" target="QRd-aFwG25JJw0g1krjn-32" edge="1">
          <mxGeometry width="50" height="50" relative="1" as="geometry">
            <mxPoint x="-200" y="90" as="sourcePoint" />
            <mxPoint x="-150" y="40" as="targetPoint" />
          </mxGeometry>
        </mxCell>
        <mxCell id="QRd-aFwG25JJw0g1krjn-59" value="" style="endArrow=none;html=1;rounded=0;entryX=0;entryY=0.5;entryDx=0;entryDy=0;exitX=1;exitY=0.5;exitDx=0;exitDy=0;" parent="1" source="QRd-aFwG25JJw0g1krjn-35" target="QRd-aFwG25JJw0g1krjn-32" edge="1">
          <mxGeometry width="50" height="50" relative="1" as="geometry">
            <mxPoint x="-200" y="90" as="sourcePoint" />
            <mxPoint x="-150" y="40" as="targetPoint" />
          </mxGeometry>
        </mxCell>
        <mxCell id="QRd-aFwG25JJw0g1krjn-60" value="" style="endArrow=none;html=1;rounded=0;entryX=0;entryY=0.25;entryDx=0;entryDy=0;exitX=1;exitY=0.5;exitDx=0;exitDy=0;" parent="1" source="QRd-aFwG25JJw0g1krjn-36" target="QRd-aFwG25JJw0g1krjn-1" edge="1">
          <mxGeometry width="50" height="50" relative="1" as="geometry">
            <mxPoint x="-200" y="90" as="sourcePoint" />
            <mxPoint x="-150" y="40" as="targetPoint" />
          </mxGeometry>
        </mxCell>
        <mxCell id="QRd-aFwG25JJw0g1krjn-61" value="" style="endArrow=none;html=1;rounded=0;entryX=0;entryY=0.5;entryDx=0;entryDy=0;exitX=1;exitY=0.5;exitDx=0;exitDy=0;" parent="1" source="QRd-aFwG25JJw0g1krjn-37" target="QRd-aFwG25JJw0g1krjn-1" edge="1">
          <mxGeometry width="50" height="50" relative="1" as="geometry">
            <mxPoint x="-200" y="90" as="sourcePoint" />
            <mxPoint x="-150" y="40" as="targetPoint" />
          </mxGeometry>
        </mxCell>
        <mxCell id="QRd-aFwG25JJw0g1krjn-64" value="" style="group" parent="1" vertex="1" connectable="0">
          <mxGeometry x="520" y="220" width="175" height="80" as="geometry" />
        </mxCell>
        <mxCell id="QRd-aFwG25JJw0g1krjn-5" value="MANEJA" style="rhombus;whiteSpace=wrap;html=1;" parent="QRd-aFwG25JJw0g1krjn-64" vertex="1">
          <mxGeometry x="20" width="130" height="80" as="geometry" />
        </mxCell>
        <mxCell id="QRd-aFwG25JJw0g1krjn-62" value="1" style="text;html=1;strokeColor=none;fillColor=none;align=center;verticalAlign=middle;whiteSpace=wrap;rounded=0;" parent="QRd-aFwG25JJw0g1krjn-64" vertex="1">
          <mxGeometry y="2.5" width="60" height="30" as="geometry" />
        </mxCell>
        <mxCell id="QRd-aFwG25JJw0g1krjn-63" value="1" style="text;html=1;strokeColor=none;fillColor=none;align=center;verticalAlign=middle;whiteSpace=wrap;rounded=0;" parent="QRd-aFwG25JJw0g1krjn-64" vertex="1">
          <mxGeometry x="115" y="2.5" width="60" height="30" as="geometry" />
        </mxCell>
        <mxCell id="QRd-aFwG25JJw0g1krjn-69" value="" style="group" parent="1" vertex="1" connectable="0">
          <mxGeometry x="547.5" y="360" width="180" height="80" as="geometry" />
        </mxCell>
        <mxCell id="QRd-aFwG25JJw0g1krjn-7" value="TRABAJA_EN" style="rhombus;whiteSpace=wrap;html=1;" parent="QRd-aFwG25JJw0g1krjn-69" vertex="1">
          <mxGeometry x="20" width="130" height="80" as="geometry" />
        </mxCell>
        <mxCell id="QRd-aFwG25JJw0g1krjn-67" value="N" style="text;html=1;strokeColor=none;fillColor=none;align=center;verticalAlign=middle;whiteSpace=wrap;rounded=0;" parent="QRd-aFwG25JJw0g1krjn-69" vertex="1">
          <mxGeometry width="60" height="30" as="geometry" />
        </mxCell>
        <mxCell id="QRd-aFwG25JJw0g1krjn-68" value="M" style="text;html=1;strokeColor=none;fillColor=none;align=center;verticalAlign=middle;whiteSpace=wrap;rounded=0;" parent="QRd-aFwG25JJw0g1krjn-69" vertex="1">
          <mxGeometry x="120" y="10" width="60" height="30" as="geometry" />
        </mxCell>
        <mxCell id="QRd-aFwG25JJw0g1krjn-76" value="" style="group" parent="1" vertex="1" connectable="0">
          <mxGeometry x="940" y="180" width="160" height="90" as="geometry" />
        </mxCell>
        <mxCell id="QRd-aFwG25JJw0g1krjn-6" value="CONTROLA" style="rhombus;whiteSpace=wrap;html=1;" parent="QRd-aFwG25JJw0g1krjn-76" vertex="1">
          <mxGeometry y="10" width="140" height="80" as="geometry" />
        </mxCell>
        <mxCell id="QRd-aFwG25JJw0g1krjn-65" value="1" style="text;html=1;strokeColor=none;fillColor=none;align=center;verticalAlign=middle;whiteSpace=wrap;rounded=0;" parent="QRd-aFwG25JJw0g1krjn-76" vertex="1">
          <mxGeometry width="60" height="30" as="geometry" />
        </mxCell>
        <mxCell id="QRd-aFwG25JJw0g1krjn-66" value="N" style="text;html=1;strokeColor=none;fillColor=none;align=center;verticalAlign=middle;whiteSpace=wrap;rounded=0;" parent="QRd-aFwG25JJw0g1krjn-76" vertex="1">
          <mxGeometry x="100" y="17.5" width="60" height="30" as="geometry" />
        </mxCell>
        <mxCell id="QRd-aFwG25JJw0g1krjn-78" value="N" style="text;html=1;strokeColor=none;fillColor=none;align=center;verticalAlign=middle;whiteSpace=wrap;rounded=0;" parent="1" vertex="1">
          <mxGeometry x="460" y="-10" width="60" height="30" as="geometry" />
        </mxCell>
        <mxCell id="QRd-aFwG25JJw0g1krjn-79" value="" style="group" parent="1" vertex="1" connectable="0">
          <mxGeometry x="480" y="-10" width="170" height="80" as="geometry" />
        </mxCell>
        <mxCell id="QRd-aFwG25JJw0g1krjn-4" value="TRABAJA" style="rhombus;whiteSpace=wrap;html=1;" parent="QRd-aFwG25JJw0g1krjn-79" vertex="1">
          <mxGeometry width="150" height="80" as="geometry" />
        </mxCell>
        <mxCell id="QRd-aFwG25JJw0g1krjn-77" value="1" style="text;html=1;strokeColor=none;fillColor=none;align=center;verticalAlign=middle;whiteSpace=wrap;rounded=0;" parent="QRd-aFwG25JJw0g1krjn-79" vertex="1">
          <mxGeometry x="110" width="60" height="30" as="geometry" />
        </mxCell>
        <mxCell id="QRd-aFwG25JJw0g1krjn-72" value="N" style="text;html=1;strokeColor=none;fillColor=none;align=center;verticalAlign=middle;whiteSpace=wrap;rounded=0;" parent="1" vertex="1">
          <mxGeometry x="260" y="330" width="60" height="30" as="geometry" />
        </mxCell>
        <mxCell id="QRd-aFwG25JJw0g1krjn-80" value="" style="group" parent="1" vertex="1" connectable="0">
          <mxGeometry x="160" y="320" width="140" height="90" as="geometry" />
        </mxCell>
        <mxCell id="QRd-aFwG25JJw0g1krjn-12" value="DEPENDE_DE" style="shape=rhombus;double=1;perimeter=rhombusPerimeter;whiteSpace=wrap;html=1;align=center;" parent="QRd-aFwG25JJw0g1krjn-80" vertex="1">
          <mxGeometry x="10" width="130" height="90" as="geometry" />
        </mxCell>
        <mxCell id="QRd-aFwG25JJw0g1krjn-71" value="1" style="text;html=1;strokeColor=none;fillColor=none;align=center;verticalAlign=middle;whiteSpace=wrap;rounded=0;" parent="QRd-aFwG25JJw0g1krjn-80" vertex="1">
          <mxGeometry width="60" height="30" as="geometry" />
        </mxCell>
        <mxCell id="QRd-aFwG25JJw0g1krjn-81" value="" style="group" parent="1" vertex="1" connectable="0">
          <mxGeometry x="880" y="-20" width="220" height="120" as="geometry" />
        </mxCell>
        <mxCell id="QRd-aFwG25JJw0g1krjn-2" value="DEPARTAMENTO" style="rounded=1;whiteSpace=wrap;html=1;" parent="QRd-aFwG25JJw0g1krjn-81" vertex="1">
          <mxGeometry y="60" width="120" height="60" as="geometry" />
        </mxCell>
        <mxCell id="QRd-aFwG25JJw0g1krjn-42" value="&lt;u&gt;NOMBRE&lt;/u&gt;" style="ellipse;whiteSpace=wrap;html=1;" parent="QRd-aFwG25JJw0g1krjn-81" vertex="1">
          <mxGeometry x="100" width="120" height="55" as="geometry" />
        </mxCell>
        <mxCell id="QRd-aFwG25JJw0g1krjn-51" value="" style="endArrow=none;html=1;rounded=0;exitX=0.75;exitY=0;exitDx=0;exitDy=0;entryX=0.025;entryY=0.764;entryDx=0;entryDy=0;entryPerimeter=0;" parent="QRd-aFwG25JJw0g1krjn-81" source="QRd-aFwG25JJw0g1krjn-2" target="QRd-aFwG25JJw0g1krjn-42" edge="1">
          <mxGeometry width="50" height="50" relative="1" as="geometry">
            <mxPoint x="-200" y="225" as="sourcePoint" />
            <mxPoint x="-150" y="175" as="targetPoint" />
          </mxGeometry>
        </mxCell>
        <mxCell id="PjkTXAqXW_rsJIuZ7meg-1" value="GERENCIA" style="rhombus;whiteSpace=wrap;html=1;" vertex="1" parent="1">
          <mxGeometry x="-290" y="440" width="190" height="80" as="geometry" />
        </mxCell>
        <mxCell id="PjkTXAqXW_rsJIuZ7meg-2" value="" style="endArrow=none;html=1;rounded=0;entryX=0;entryY=0.75;entryDx=0;entryDy=0;exitX=0;exitY=0.5;exitDx=0;exitDy=0;" edge="1" parent="1" source="PjkTXAqXW_rsJIuZ7meg-1" target="QRd-aFwG25JJw0g1krjn-1">
          <mxGeometry width="50" height="50" relative="1" as="geometry">
            <mxPoint x="310" y="360" as="sourcePoint" />
            <mxPoint x="360" y="310" as="targetPoint" />
          </mxGeometry>
        </mxCell>
        <mxCell id="PjkTXAqXW_rsJIuZ7meg-3" value="" style="endArrow=none;html=1;rounded=0;exitX=1;exitY=0.5;exitDx=0;exitDy=0;entryX=0;entryY=1;entryDx=0;entryDy=0;" edge="1" parent="1" source="PjkTXAqXW_rsJIuZ7meg-1" target="QRd-aFwG25JJw0g1krjn-1">
          <mxGeometry width="50" height="50" relative="1" as="geometry">
            <mxPoint x="310" y="360" as="sourcePoint" />
            <mxPoint x="360" y="310" as="targetPoint" />
          </mxGeometry>
        </mxCell>
        <mxCell id="PjkTXAqXW_rsJIuZ7meg-5" value="" style="group" vertex="1" connectable="0" parent="1">
          <mxGeometry x="-10" y="370" width="160" height="80" as="geometry" />
        </mxCell>
        <mxCell id="QRd-aFwG25JJw0g1krjn-15" value="SUPERVISA" style="rhombus;whiteSpace=wrap;html=1;" parent="PjkTXAqXW_rsJIuZ7meg-5" vertex="1">
          <mxGeometry width="140" height="80" as="geometry" />
        </mxCell>
        <mxCell id="QRd-aFwG25JJw0g1krjn-75" value="N" style="text;html=1;strokeColor=none;fillColor=none;align=center;verticalAlign=middle;whiteSpace=wrap;rounded=0;" parent="PjkTXAqXW_rsJIuZ7meg-5" vertex="1">
          <mxGeometry x="100" y="50" width="60" height="30" as="geometry" />
        </mxCell>
        <mxCell id="QRd-aFwG25JJw0g1krjn-74" value="1" style="text;html=1;strokeColor=none;fillColor=none;align=center;verticalAlign=middle;whiteSpace=wrap;rounded=0;" parent="PjkTXAqXW_rsJIuZ7meg-5" vertex="1">
          <mxGeometry x="-10" y="50" width="60" height="30" as="geometry" />
        </mxCell>
      </root>
    </mxGraphModel>
  </diagram>
</mxfile>
